<svg xmlns="http://www.w3.org/2000/svg" width="43" height="35.571" viewBox="0 0 43 35.571">
  <g id="Group_8" data-name="Group 8" transform="translate(-60 -957.214)">
    <g id="Component_1_4" data-name="Component 1 – 4" transform="translate(81 992.786) rotate(180)">
      <circle id="Ellipse_3" data-name="Ellipse 3" cx="10.5" cy="10.5" r="10.5" transform="translate(0 14.571)" fill="#e03534"/>
      <path id="Path_1" data-name="Path 1" d="M1029.888,443.568s-4.99-2.1-1.358-7.675,4.986-5.889,4.986-5.889l-1.635-1.576s-3.408.639-8.353,7.464a44.522,44.522,0,0,0-6.145,11.711,14.734,14.734,0,0,0-.7,4.153Z" transform="translate(-1016 -428.429)" fill="#e03534"/>
    </g>
    <g id="Component_1_5" data-name="Component 1 – 5" transform="translate(103 992.786) rotate(180)">
      <circle id="Ellipse_3-2" data-name="Ellipse 3" cx="10.5" cy="10.5" r="10.5" transform="translate(0 14.571)" fill="#e03534"/>
      <path id="Path_1-2" data-name="Path 1" d="M1029.888,443.568s-4.99-2.1-1.358-7.675,4.986-5.889,4.986-5.889l-1.635-1.576s-3.408.639-8.353,7.464a44.522,44.522,0,0,0-6.145,11.711,14.734,14.734,0,0,0-.7,4.153Z" transform="translate(-1016 -428.429)" fill="#e03534"/>
    </g>
  </g>
</svg>
