<svg xmlns="http://www.w3.org/2000/svg" width="314.397" height="41.093" viewBox="0 0 314.397 41.093">
  <g id="Group_7" data-name="Group 7" transform="translate(-1263.057 -3675.872)">
    <path id="Path_13" data-name="Path 13" d="M202.792,2884.154l-6.8,13.48-14.584,2.477,10.117,10.366-2.1,14.77,13.371-6.744,13.285,6.744-2.163-14.77,10.531-10.366-15.384-2.477Z" transform="translate(1081.65 791.717)" fill="#e03534"/>
    <path id="Path_14" data-name="Path 14" d="M202.792,2884.154l-6.8,13.48-14.584,2.477,10.117,10.366-2.1,14.77,13.371-6.744,13.285,6.744-2.163-14.77,10.531-10.366-15.384-2.477Z" transform="translate(1135.57 791.717)" fill="#e03534"/>
    <path id="Path_15" data-name="Path 15" d="M202.792,2884.154l-6.8,13.48-14.584,2.477,10.117,10.366-2.1,14.77,13.371-6.744,13.285,6.744-2.163-14.77,10.531-10.366-15.384-2.477Z" transform="translate(1196.487 791.717)" fill="#e03534"/>
    <path id="Path_16" data-name="Path 16" d="M202.792,2884.154l-6.8,13.48-14.584,2.477,10.117,10.366-2.1,14.77,13.371-6.744,13.285,6.744-2.163-14.77,10.531-10.366-15.384-2.477Z" transform="translate(1248.661 791.717)" fill="#e03534"/>
    <path id="Path_17" data-name="Path 17" d="M202.792,2884.154l-6.8,13.48-14.584,2.477,10.117,10.366-2.1,14.77,13.371-6.744,13.285,6.744-2.163-14.77,10.531-10.366-15.384-2.477Z" transform="translate(1300.835 791.717)" fill="#e03534"/>
    <path id="Path_18" data-name="Path 18" d="M202.792,2884.154l-6.8,13.48-14.584,2.477,10.117,10.366-2.1,14.77,13.371-6.744,13.285,6.744-2.163-14.77,10.531-10.366-15.384-2.477Z" transform="translate(1353.009 791.717)" fill="#e03534"/>
  </g>
</svg>
