<svg xmlns="http://www.w3.org/2000/svg" width="258.718" height="41.093" viewBox="0 0 258.718 41.093">
  <g id="Group_6" data-name="Group 6" transform="translate(-829.607 -3684.872)">
    <path id="Path_8" data-name="Path 8" d="M202.792,2884.154l-6.8,13.48-14.584,2.477,10.117,10.366-2.1,14.77,13.371-6.744,13.285,6.744-2.163-14.77,10.531-10.366-15.384-2.477Z" transform="translate(648.2 800.717)" fill="#e03534"/>
    <path id="Path_9" data-name="Path 9" d="M202.792,2884.154l-6.8,13.48-14.584,2.477,10.117,10.366-2.1,14.77,13.371-6.744,13.285,6.744-2.163-14.77,10.531-10.366-15.384-2.477Z" transform="translate(702.12 800.717)" fill="#e03534"/>
    <path id="Path_10" data-name="Path 10" d="M202.792,2884.154l-6.8,13.48-14.584,2.477,10.117,10.366-2.1,14.77,13.371-6.744,13.285,6.744-2.163-14.77,10.531-10.366-15.384-2.477Z" transform="translate(756.041 800.717)" fill="#e03534"/>
    <path id="Path_11" data-name="Path 11" d="M202.792,2884.154l-6.8,13.48-14.584,2.477,10.117,10.366-2.1,14.77,13.371-6.744,13.285,6.744-2.163-14.77,10.531-10.366-15.384-2.477Z" transform="translate(809.961 800.717)" fill="#e03534"/>
    <path id="Path_12" data-name="Path 12" d="M202.792,2884.154l-6.8,13.48-14.584,2.477,10.117,10.366-2.1,14.77,13.371-6.744,13.285,6.744-2.163-14.77,10.531-10.366-15.384-2.477Z" transform="translate(863.881 800.717)" fill="#d19b9a"/>
  </g>
</svg>
