<svg xmlns="http://www.w3.org/2000/svg" width="314.459" height="41.093" viewBox="0 0 314.459 41.093">
  <g id="Group_5" data-name="Group 5" transform="translate(-344.407 -3675.872)">
    <path id="Path_2" data-name="Path 2" d="M202.792,2884.154l-6.8,13.48-14.584,2.477,10.117,10.366-2.1,14.77,13.371-6.744,13.285,6.744-2.163-14.77,10.531-10.366-15.384-2.477Z" transform="translate(163 791.717)" fill="#e03534"/>
    <path id="Path_3" data-name="Path 3" d="M202.792,2884.154l-6.8,13.48-14.584,2.477,10.117,10.366-2.1,14.77,13.371-6.744,13.285,6.744-2.163-14.77,10.531-10.366-15.384-2.477Z" transform="translate(215.174 791.717)" fill="#e03534"/>
    <path id="Path_4" data-name="Path 4" d="M202.792,2884.154l-6.8,13.48-14.584,2.477,10.117,10.366-2.1,14.77,13.371-6.744,13.285,6.744-2.163-14.77,10.531-10.366-15.384-2.477Z" transform="translate(267.348 791.717)" fill="#e03534"/>
    <path id="Path_5" data-name="Path 5" d="M202.792,2884.154l-6.8,13.48-14.584,2.477,10.117,10.366-2.1,14.77,13.371-6.744,13.285,6.744-2.163-14.77,10.531-10.366-15.384-2.477Z" transform="translate(319.522 791.717)" fill="#e03534"/>
    <path id="Path_6" data-name="Path 6" d="M202.792,2884.154l-6.8,13.48-14.584,2.477,10.117,10.366-2.1,14.77,13.371-6.744,13.285,6.744-2.163-14.77,10.531-10.366-15.384-2.477Z" transform="translate(380.502 791.717)" fill="#e03534"/>
    <path id="Path_7" data-name="Path 7" d="M202.792,2884.154l-6.8,13.48-14.584,2.477,10.117,10.366-2.1,14.77,13.371-6.744,13.285,6.744-2.163-14.77,10.531-10.366-15.384-2.477Z" transform="translate(434.422 791.717)" fill="#d19b9a"/>
  </g>
</svg>
